<svg xmlns="http://www.w3.org/2000/svg" width="140" height="140" viewBox="0 0 140 140">
  <g fill="#ffffff" opacity="0.92">
    <circle cx="12" cy="18" r="2.4"/>
    <circle cx="44" cy="10" r="1.8"/>
    <circle cx="78" cy="26" r="2.6"/>
    <circle cx="118" cy="14" r="2"/>
    <circle cx="22" cy="62" r="2.2"/>
    <circle cx="66" cy="54" r="2.8"/>
    <circle cx="104" cy="70" r="1.9"/>
    <circle cx="34" cy="108" r="2.3"/>
    <circle cx="92" cy="98" r="2.5"/>
    <circle cx="128" cy="118" r="2"/>
    <circle cx="8" cy="126" r="2.1"/>
  </g>
  <g fill="#e8ecf8" opacity="0.88">
    <circle cx="28" cy="38" r="2"/>
    <circle cx="58" cy="72" r="2.4"/>
    <circle cx="96" cy="44" r="1.7"/>
    <circle cx="14" cy="88" r="2.2"/>
    <circle cx="112" cy="88" r="2"/>
    <circle cx="48" cy="124" r="1.8"/>
  </g>
  <g fill="#ff8eb8" opacity="0.82">
    <circle cx="52" cy="22" r="2.1"/>
    <circle cx="88" cy="58" r="2.3"/>
    <circle cx="18" cy="48" r="1.9"/>
    <circle cx="72" cy="112" r="2"/>
    <circle cx="124" cy="52" r="2.2"/>
  </g>
  <g fill="#ffffff" opacity="0.78">
    <path d="M36 14l1.8 3.6 3.9 1-3.9 1-1.8 3.6-1.8-3.6-3.9-1 3.9-1z"/>
    <path d="M108 34l1.6 3.2 3.5.9-3.5.9-1.6 3.2-1.6-3.2-3.5-.9 3.5-.9z"/>
    <path d="M62 92l2 4 4.3 1.1-4.3 1.1-2 4-2-4-4.3-1.1 4.3-1.1z"/>
    <path d="M14 108l1.4 2.8 3 .8-3 .8-1.4 2.8-1.4-2.8-3-.8 3-.8z"/>
  </g>
</svg>
