<svg xmlns="http://www.w3.org/2000/svg" viewBox="-2 0 54 110" fill="none" aria-hidden="true">
  <ellipse fill="currentColor" stroke="rgba(0,0,0,.55)" stroke-width=".65" cx="25" cy="11.5" rx="6.8" ry="7.8"/>
  <path fill="currentColor" stroke="rgba(0,0,0,.55)" stroke-width=".65" stroke-linejoin="round" d="M14.5 20 C17 18.5 20 18 25 18 C30 18 33 18.5 35.5 20 L46 30 L43.5 36 L38 33 L35 27 L34 42 L33 52 L34.5 58 L33 66 L34 74 L35.5 82 L37 104 L32 104 L30 80 L25 74 L20 80 L18 104 L13 104 L14.5 82 L16 74 L17 66 L15.5 58 L17 52 L16 42 L15 27 L12 33 L6.5 36 L4 30 Z"/>
</svg>
