<svg xmlns="http://www.w3.org/2000/svg" viewBox="0 0 240 140" fill="none">
  <rect width="240" height="140" fill="#f3e8ee"/>
  <path d="M0 42h240M0 88h240M0 112h240" stroke="#e91e63" stroke-width="2.2" opacity=".35"/>
  <path d="M38 0v140M98 0v140M158 0v140M202 0v140" stroke="#e91e63" stroke-width="2.2" opacity=".35"/>
  <path d="M0 68c40-18 80 18 120 0s80 18 120 0" stroke="#c2185b" stroke-width="2.8" opacity=".28"/>
  <path d="M20 0c18 36 18 68 0 104M120 0c-14 46 14 92 0 140M210 0c-20 34-20 72 0 106" stroke="#c2185b" stroke-width="2" opacity=".22"/>
  <circle cx="118" cy="66" r="9" fill="#e91e63" opacity=".55"/>
  <circle cx="118" cy="66" r="4" fill="#fff" opacity=".9"/>
  <circle cx="72" cy="44" r="5" fill="#e91e63" opacity=".35"/>
  <circle cx="168" cy="92" r="5" fill="#e91e63" opacity=".35"/>
</svg>
