<?xml version="1.0" encoding="UTF-8"?>
<svg xmlns="http://www.w3.org/2000/svg" width="800" height="200" viewBox="0 0 800 200" role="img" aria-label="Anúnciate aquí — Mascotas y servicios veterinarios">
  <defs>
    <linearGradient id="bg-mascotas" x1="0%" y1="0%" x2="100%" y2="100%">
      <stop offset="0%" stop-color="#ba68c8"/>
      <stop offset="52%" stop-color="#8e24aa"/>
      <stop offset="100%" stop-color="#6a1b9a"/>
    </linearGradient>
  </defs>
  <rect width="800" height="200" fill="url(#bg-mascotas)"/>
  
      <ellipse cx="82" cy="108" rx="22" ry="18" fill="rgba(255,255,255,.2)"/>
      <circle cx="62" cy="82" r="10" fill="rgba(255,255,255,.22)"/>
      <circle cx="102" cy="82" r="10" fill="rgba(255,255,255,.22)"/>
      <circle cx="72" cy="132" r="8" fill="rgba(255,255,255,.18)"/>
      <circle cx="92" cy="132" r="8" fill="rgba(255,255,255,.18)"/>
      <path d="M708 92c12 0 22 10 22 22s-10 22-22 22-22-10-22-22 10-22 22-22z" fill="rgba(255,255,255,.15)"/>
      <circle cx="698" cy="108" r="4" fill="rgba(255,255,255,.5)"/>
      <circle cx="718" cy="108" r="4" fill="rgba(255,255,255,.5)"/>
      <path d="M704 122c8 6 16 6 24 0" fill="none" stroke="rgba(255,255,255,.4)" stroke-width="3"/>
    
  <text x="400" y="82" text-anchor="middle" fill="#fff" font-family="Segoe UI, system-ui, sans-serif" font-size="34" font-weight="800" letter-spacing=".02em">Anúnciate aquí</text>
  <text x="400" y="118" text-anchor="middle" fill="rgba(255,255,255,.92)" font-family="Segoe UI, system-ui, sans-serif" font-size="16" font-weight="600">Mascotas y servicios veterinarios</text>
  <text x="400" y="148" text-anchor="middle" fill="rgba(255,255,255,.72)" font-family="Segoe UI, system-ui, sans-serif" font-size="12" font-weight="500">Renta espacio en el directorio CariHub</text>
</svg>
