<?xml version="1.0" encoding="UTF-8"?>
<svg xmlns="http://www.w3.org/2000/svg" width="800" height="200" viewBox="0 0 800 200" role="img" aria-label="Anúnciate aquí — Bienestar, espiritualidad y terapias alternativas">
  <defs>
    <linearGradient id="bg-bienestar" x1="0%" y1="0%" x2="100%" y2="100%">
      <stop offset="0%" stop-color="#7e57c2"/>
      <stop offset="52%" stop-color="#5e35b1"/>
      <stop offset="100%" stop-color="#4527a0"/>
    </linearGradient>
  </defs>
  <rect width="800" height="200" fill="url(#bg-bienestar)"/>
  
      <circle cx="90" cy="100" r="52" fill="rgba(255,255,255,.08)"/>
      <path d="M90 58c8 18 14 28 22 36-14 2-24 8-32 18 10-2 20-2 32 2-8 10-18 16-32 18 8-8 14-18 22-36 8 18 14 28 22 36-14-2-24-8-32-18 10 2 20 2 32-2-8-10-18-16-32-18z" fill="rgba(255,255,255,.22)"/>
      <circle cx="710" cy="100" r="38" fill="none" stroke="rgba(255,255,255,.18)" stroke-width="3"/>
      <circle cx="710" cy="100" r="24" fill="none" stroke="rgba(255,255,255,.14)" stroke-width="2"/>
      <text x="710" y="108" text-anchor="middle" fill="rgba(255,255,255,.35)" font-size="28">☯</text>
    
  <text x="400" y="82" text-anchor="middle" fill="#fff" font-family="Segoe UI, system-ui, sans-serif" font-size="34" font-weight="800" letter-spacing=".02em">Anúnciate aquí</text>
  <text x="400" y="118" text-anchor="middle" fill="rgba(255,255,255,.92)" font-family="Segoe UI, system-ui, sans-serif" font-size="16" font-weight="600">Bienestar, espiritualidad y terapias alternativas</text>
  <text x="400" y="148" text-anchor="middle" fill="rgba(255,255,255,.72)" font-family="Segoe UI, system-ui, sans-serif" font-size="12" font-weight="500">Renta espacio en el directorio CariHub</text>
</svg>
