<?xml version="1.0" encoding="UTF-8"?>
<svg xmlns="http://www.w3.org/2000/svg" width="800" height="200" viewBox="0 0 800 200" role="img" aria-label="Anúnciate aquí — Restaurantes, gastronomía y bebidas">
  <defs>
    <linearGradient id="bg-restaurantes" x1="0%" y1="0%" x2="100%" y2="100%">
      <stop offset="0%" stop-color="#ffb74d"/>
      <stop offset="52%" stop-color="#ef6c00"/>
      <stop offset="100%" stop-color="#e65100"/>
    </linearGradient>
  </defs>
  <rect width="800" height="200" fill="url(#bg-restaurantes)"/>
  
      <circle cx="88" cy="100" r="46" fill="rgba(255,255,255,.1)"/>
      <path d="M68 118c0-18 12-32 28-36-4 10-4 22 0 32-8-2-16 0-22 4 6-8 14-12 22-12-6 8-8 18-6 28-10-4-18-10-22-16z" fill="rgba(255,255,255,.28)"/>
      <ellipse cx="88" cy="138" rx="34" ry="8" fill="rgba(0,0,0,.12)"/>
      <path d="M708 72v56c0 8-6 14-14 14h-8c-8 0-14-6-14-14V72h36z" fill="rgba(255,255,255,.22)"/>
      <ellipse cx="690" cy="72" rx="18" ry="6" fill="rgba(255,255,255,.18)"/>
      <path d="M732 88c8 0 14 6 14 14v18c0 8-6 14-14 14h-6V88h6z" fill="rgba(255,255,255,.2)"/>
    
  <text x="400" y="82" text-anchor="middle" fill="#fff" font-family="Segoe UI, system-ui, sans-serif" font-size="34" font-weight="800" letter-spacing=".02em">Anúnciate aquí</text>
  <text x="400" y="118" text-anchor="middle" fill="rgba(255,255,255,.92)" font-family="Segoe UI, system-ui, sans-serif" font-size="16" font-weight="600">Restaurantes, gastronomía y bebidas</text>
  <text x="400" y="148" text-anchor="middle" fill="rgba(255,255,255,.72)" font-family="Segoe UI, system-ui, sans-serif" font-size="12" font-weight="500">Renta espacio en el directorio CariHub</text>
</svg>
