<?xml version="1.0" encoding="UTF-8"?>
<svg xmlns="http://www.w3.org/2000/svg" width="800" height="200" viewBox="0 0 800 200" role="img" aria-label="Anúnciate aquí — Salud y bienestar">
  <defs>
    <linearGradient id="bg-salud" x1="0%" y1="0%" x2="100%" y2="100%">
      <stop offset="0%" stop-color="#4fc3f7"/>
      <stop offset="52%" stop-color="#039be5"/>
      <stop offset="100%" stop-color="#0277bd"/>
    </linearGradient>
  </defs>
  <rect width="800" height="200" fill="url(#bg-salud)"/>
  
      <rect x="68" y="78" width="44" height="44" rx="10" fill="rgba(255,255,255,.15)"/>
      <rect x="84" y="88" width="12" height="24" rx="2" fill="rgba(255,255,255,.75)"/>
      <rect x="78" y="94" width="24" height="12" rx="2" fill="rgba(255,255,255,.75)"/>
      <path d="M688 88c0-12 10-22 22-22s22 10 22 22v8c0 12-10 22-22 22h-8v28h-16v-28h-8c-12 0-22-10-22-22v-8z" fill="rgba(255,255,255,.2)"/>
      <circle cx="710" cy="88" r="10" fill="rgba(255,255,255,.35)"/>
    
  <text x="400" y="82" text-anchor="middle" fill="#fff" font-family="Segoe UI, system-ui, sans-serif" font-size="34" font-weight="800" letter-spacing=".02em">Anúnciate aquí</text>
  <text x="400" y="118" text-anchor="middle" fill="rgba(255,255,255,.92)" font-family="Segoe UI, system-ui, sans-serif" font-size="16" font-weight="600">Salud y bienestar</text>
  <text x="400" y="148" text-anchor="middle" fill="rgba(255,255,255,.72)" font-family="Segoe UI, system-ui, sans-serif" font-size="12" font-weight="500">Renta espacio en el directorio CariHub</text>
</svg>
