<svg xmlns="http://www.w3.org/2000/svg" viewBox="0 0 760 320" role="img" aria-label="Vista previa espacio en vivo">
  <defs>
    <linearGradient id="bg" x1="0%" y1="0%" x2="100%" y2="100%">
      <stop offset="0%" stop-color="#2a1538"/>
      <stop offset="55%" stop-color="#1a0f28"/>
      <stop offset="100%" stop-color="#0d0814"/>
    </linearGradient>
    <linearGradient id="glow" x1="0%" y1="50%" x2="100%" y2="50%">
      <stop offset="0%" stop-color="#ff4081" stop-opacity="0"/>
      <stop offset="50%" stop-color="#ff4081" stop-opacity="0.35"/>
      <stop offset="100%" stop-color="#ff4081" stop-opacity="0"/>
    </linearGradient>
    <filter id="soft" x="-20%" y="-20%" width="140%" height="140%">
      <feGaussianBlur stdDeviation="8"/>
    </filter>
  </defs>
  <rect width="760" height="320" fill="url(#bg)"/>
  <rect width="760" height="320" fill="url(#glow)"/>
  <ellipse cx="380" cy="160" rx="180" ry="90" fill="#ff4081" opacity="0.12" filter="url(#soft)"/>
  <!-- Monitor / transmisiˇn -->
  <rect x="118" y="72" width="320" height="176" rx="18" fill="#120a1c" stroke="#ff4081" stroke-width="3"/>
  <rect x="134" y="88" width="288" height="144" rx="10" fill="#22142f"/>
  <circle cx="278" cy="160" r="42" fill="none" stroke="#fff" stroke-width="6" opacity="0.9"/>
  <polygon points="262,142 262,178 296,160" fill="#fff"/>
  <rect x="470" y="98" width="172" height="124" rx="14" fill="#1b1026" stroke="#5c3d72" stroke-width="2"/>
  <circle cx="556" cy="150" r="28" fill="#2d1a3d" stroke="#ff4081" stroke-width="3"/>
  <circle cx="556" cy="150" r="10" fill="#ff4081"/>
  <rect x="500" y="188" width="112" height="10" rx="5" fill="#3a2548"/>
  <rect x="500" y="206" width="88" height="8" rx="4" fill="#2f1d3d"/>
  <!-- LIVE badge -->
  <rect x="500" y="44" width="118" height="36" rx="18" fill="#e91e63"/>
  <circle cx="522" cy="62" r="6" fill="#fff"/>
  <text x="536" y="67" fill="#fff" font-family="Segoe UI, Arial, sans-serif" font-size="18" font-weight="800">LIVE</text>
  <!-- Ondas -->
  <path d="M56 220 Q88 180 120 220 T184 220" fill="none" stroke="#ff4081" stroke-width="4" opacity="0.7"/>
  <path d="M600 220 Q632 180 664 220 T728 220" fill="none" stroke="#ff4081" stroke-width="4" opacity="0.7"/>
  <text x="380" y="292" text-anchor="middle" fill="#d8b8cc" font-family="Segoe UI, Arial, sans-serif" font-size="16" font-weight="600">Espacio para transmisiˇn en vivo</text>
</svg>
