<svg xmlns="http://www.w3.org/2000/svg" viewBox="0 0 320 200" role="img" aria-label="Plaza colonial">
  <rect width="320" height="200" fill="#B3E5FC"/>
  <rect x="0" y="140" width="320" height="60" fill="#C8E6C9"/>
  <ellipse cx="160" cy="155" rx="90" ry="28" fill="#DCE775" opacity="0.5"/>
  <rect x="48" y="88" width="56" height="52" fill="#FFCC80" rx="2"/>
  <rect x="56" y="96" width="12" height="18" fill="#5D4037"/>
  <rect x="84" y="96" width="12" height="18" fill="#5D4037"/>
  <path d="M48 88 L76 62 L104 88 Z" fill="#E65100"/>
  <rect x="128" y="78" width="64" height="62" fill="#FFE0B2" rx="2"/>
  <rect x="140" y="90" width="14" height="22" fill="#6D4C41"/>
  <rect x="166" y="90" width="14" height="22" fill="#6D4C41"/>
  <path d="M128 78 L160 48 L192 78 Z" fill="#BF360C"/>
  <rect x="208" y="92" width="52" height="48" fill="#FFCC80" rx="2"/>
  <path d="M208 92 L234 70 L260 92 Z" fill="#E65100"/>
  <circle cx="160" cy="158" r="8" fill="#689F38"/>
</svg>
