<svg xmlns="http://www.w3.org/2000/svg" viewBox="0 0 800 400" fill="none" aria-hidden="true">
  <ellipse cx="400" cy="200" rx="360" ry="170" stroke="#e91e63" stroke-width="1.2" opacity=".35"/>
  <path d="M120 180c40-30 90-45 140-40 50 5 95 35 120 70 25-50 70-85 130-90 60-5 115 20 150 55-35 25-75 40-120 42-45 2-90-10-130-37-30 22-65 35-100 0z" fill="#e91e63" opacity=".2"/>
  <path d="M480 120c55-15 110 0 145 40-30 15-65 22-100 18-35-4-65-22-85-48 15-5 28-8 40-10z" fill="#e91e63" opacity=".18"/>
  <path d="M200 250c45 20 95 28 145 22 50-6 98-28 135-58-40 35-88 55-140 58-52 3-100-8-140-22z" fill="#e91e63" opacity=".15"/>
</svg>
